<?xml version="1.0" encoding="UTF-8"?>
<!DOCTYPE svg PUBLIC "-//W3C//DTD SVG 1.1//EN" "http://www.w3.org/Graphics/SVG/1.1/DTD/svg11.dtd">
<!-- Creator: CorelDRAW X6 -->
<svg xmlns="http://www.w3.org/2000/svg" xml:space="preserve" width="11in" height="8.5in" version="1.1" style="shape-rendering:geometricPrecision; text-rendering:geometricPrecision; image-rendering:optimizeQuality; fill-rule:evenodd; clip-rule:evenodd"
viewBox="0 0 11000 8500"
 xmlns:xlink="http://www.w3.org/1999/xlink">
 <defs>
  <style type="text/css">
   <![CDATA[
    .fil0 {fill:#D89539;fill-rule:nonzero}
    .fil1 {fill:#FCB62F;fill-rule:nonzero}
    .fil3 {fill:#303030;fill-rule:nonzero;fill-opacity:0.101961}
    .fil4 {fill:#303030;fill-rule:nonzero;fill-opacity:0.301961}
    .fil2 {fill:#FCFEFE;fill-rule:nonzero;fill-opacity:0.301961}
   ]]>
  </style>
 </defs>
 <g id="__x0023_Layer_x0020_1">
  <metadata id="CorelCorpID_0Corel-Layer"/>
  <g id="_297064080">
   <g>
    <path class="fil0" d="M4242 5428l0 277c0,0 680,284 2133,270 0,0 1700,60 2133,-277 57,-45 0,0 0,0l0 -262 -4267 -8z"/>
    <g>
     <path class="fil1" d="M8508 5423c0,167 -955,303 -2133,303 -1178,0 -2133,-136 -2133,-303 0,-167 955,-303 2133,-303 1178,0 2133,136 2133,303z"/>
     <path class="fil2" d="M7996 5423c0,127 -726,230 -1621,230 -895,0 -1621,-103 -1621,-230 0,-127 726,-230 1621,-230 895,0 1621,103 1621,230z"/>
    </g>
   </g>
   <g>
    <path class="fil0" d="M4242 5135l0 277c0,0 680,284 2133,270 0,0 1700,60 2133,-277 57,-45 0,0 0,0l0 -262 -4267 -7z"/>
    <g>
     <path class="fil1" d="M8508 5130c0,167 -955,303 -2133,303 -1178,0 -2133,-136 -2133,-303 0,-167 955,-303 2133,-303 1178,0 2133,136 2133,303z"/>
     <path class="fil2" d="M7996 5130c0,127 -726,230 -1621,230 -895,0 -1621,-103 -1621,-230 0,-127 726,-230 1621,-230 895,0 1621,103 1621,230z"/>
    </g>
   </g>
   <g>
    <path class="fil0" d="M4242 4819l0 277c0,0 680,284 2133,269 0,0 1700,60 2133,-277 57,-45 0,0 0,0l0 -262 -4267 -7z"/>
    <g>
     <path class="fil1" d="M8508 4814c0,167 -955,303 -2133,303 -1178,0 -2133,-136 -2133,-303 0,-167 955,-303 2133,-303 1178,0 2133,136 2133,303z"/>
     <path class="fil2" d="M7996 4814c0,127 -726,230 -1621,230 -895,0 -1621,-103 -1621,-230 0,-127 726,-230 1621,-230 895,0 1621,103 1621,230z"/>
    </g>
   </g>
   <g>
    <path class="fil0" d="M4242 4526l0 277c0,0 680,284 2133,270 0,0 1700,60 2133,-277 57,-45 0,0 0,0l0 -262 -4267 -7z"/>
    <g>
     <path class="fil1" d="M8508 4521c0,167 -955,303 -2133,303 -1178,0 -2133,-136 -2133,-303 0,-167 955,-303 2133,-303 1178,0 2133,136 2133,303z"/>
     <path class="fil2" d="M7996 4521c0,127 -726,230 -1621,230 -895,0 -1621,-103 -1621,-230 0,-127 726,-230 1621,-230 895,0 1621,103 1621,230z"/>
    </g>
   </g>
   <g>
    <path class="fil0" d="M4242 4217l0 277c0,0 680,284 2133,269 0,0 1700,60 2133,-277 57,-45 0,0 0,0l0 -262 -4267 -7z"/>
    <g>
     <path class="fil1" d="M8508 4212c0,167 -955,303 -2133,303 -1178,0 -2133,-136 -2133,-303 0,-167 955,-303 2133,-303 1178,0 2133,136 2133,303z"/>
     <path class="fil2" d="M7996 4212c0,127 -726,230 -1621,230 -895,0 -1621,-103 -1621,-230 0,-127 726,-230 1621,-230 895,0 1621,103 1621,230z"/>
    </g>
   </g>
   <g>
    <path class="fil0" d="M4242 3924l0 277c0,0 680,284 2133,270 0,0 1700,60 2133,-277 57,-45 0,0 0,0l0 -262 -4267 -7z"/>
    <g>
     <path class="fil1" d="M8508 3919c0,167 -955,303 -2133,303 -1178,0 -2133,-136 -2133,-303 0,-167 955,-303 2133,-303 1178,0 2133,136 2133,303z"/>
     <path class="fil2" d="M7996 3919c0,127 -726,230 -1621,230 -895,0 -1621,-103 -1621,-230 0,-127 726,-230 1621,-230 895,0 1621,103 1621,230z"/>
    </g>
   </g>
   <g>
    <path class="fil0" d="M4242 3608l0 277c0,0 680,284 2133,269 0,0 1700,60 2133,-277 57,-45 0,0 0,0l0 -262 -4267 -7z"/>
    <g>
     <path class="fil1" d="M8508 3603c0,167 -955,303 -2133,303 -1178,0 -2133,-136 -2133,-303 0,-167 955,-303 2133,-303 1178,0 2133,136 2133,303z"/>
     <path class="fil2" d="M7996 3603c0,127 -726,230 -1621,230 -895,0 -1621,-103 -1621,-230 0,-127 726,-230 1621,-230 895,0 1621,103 1621,230z"/>
    </g>
   </g>
   <g>
    <path class="fil0" d="M4242 3314l0 277c0,0 680,284 2133,270 0,0 1700,60 2133,-277 57,-45 0,0 0,0l0 -262 -4267 -7z"/>
    <g>
     <path class="fil1" d="M8508 3310c0,167 -955,303 -2133,303 -1178,0 -2133,-136 -2133,-303 0,-167 955,-303 2133,-303 1178,0 2133,136 2133,303z"/>
     <path class="fil2" d="M7996 3310c0,127 -726,230 -1621,230 -895,0 -1621,-103 -1621,-230 0,-127 726,-230 1621,-230 895,0 1621,103 1621,230z"/>
    </g>
   </g>
   <g>
    <path class="fil0" d="M4242 2991l0 277c0,0 680,284 2133,269 0,0 1700,60 2133,-277 57,-45 0,0 0,0l0 -262 -4267 -7z"/>
    <g>
     <path class="fil1" d="M8508 2986c0,167 -955,303 -2133,303 -1178,0 -2133,-136 -2133,-303 0,-167 955,-303 2133,-303 1178,0 2133,136 2133,303z"/>
     <path class="fil2" d="M7996 2986c0,127 -726,230 -1621,230 -895,0 -1621,-103 -1621,-230 0,-127 726,-230 1621,-230 895,0 1621,103 1621,230z"/>
    </g>
   </g>
   <g>
    <path class="fil0" d="M4242 2698l0 277c0,0 680,284 2133,270 0,0 1700,60 2133,-277 57,-45 0,0 0,0l0 -262 -4267 -8z"/>
    <g>
     <path class="fil1" d="M8508 2693c0,167 -955,303 -2133,303 -1178,0 -2133,-136 -2133,-303 0,-167 955,-303 2133,-303 1178,0 2133,136 2133,303z"/>
     <path class="fil2" d="M7996 2693c0,127 -726,230 -1621,230 -895,0 -1621,-103 -1621,-230 0,-127 726,-230 1621,-230 895,0 1621,103 1621,230z"/>
    </g>
   </g>
   <g>
    <path class="fil0" d="M4242 2382l0 277c0,0 680,284 2133,269 0,0 1700,60 2133,-277 57,-45 0,0 0,0l0 -262 -4267 -7z"/>
    <g>
     <path class="fil1" d="M8508 2377c0,167 -955,303 -2133,303 -1178,0 -2133,-136 -2133,-303 0,-167 955,-303 2133,-303 1178,0 2133,136 2133,303z"/>
     <path class="fil2" d="M7996 2377c0,127 -726,230 -1621,230 -895,0 -1621,-103 -1621,-230 0,-127 726,-230 1621,-230 895,0 1621,103 1621,230z"/>
    </g>
   </g>
   <g>
    <path class="fil0" d="M4242 2089l0 277c0,0 680,284 2133,270 0,0 1700,60 2133,-277 57,-45 0,0 0,0l0 -262 -4267 -7z"/>
    <g>
     <path class="fil1" d="M8508 2084c0,167 -955,303 -2133,303 -1178,0 -2133,-136 -2133,-303 0,-167 955,-303 2133,-303 1178,0 2133,136 2133,303z"/>
     <path class="fil2" d="M7996 2084c0,127 -726,230 -1621,230 -895,0 -1621,-103 -1621,-230 0,-127 726,-230 1621,-230 895,0 1621,103 1621,230z"/>
    </g>
   </g>
   <g>
    <path class="fil0" d="M4242 1780l0 277c0,0 680,284 2133,269 0,0 1700,60 2133,-277 57,-45 0,0 0,0l0 -262 -4267 -7z"/>
    <g>
     <path class="fil1" d="M8508 1775c0,167 -955,303 -2133,303 -1178,0 -2133,-136 -2133,-303 0,-167 955,-303 2133,-303 1178,0 2133,136 2133,303z"/>
     <path class="fil2" d="M7996 1775c0,127 -726,230 -1621,230 -895,0 -1621,-103 -1621,-230 0,-127 726,-230 1621,-230 895,0 1621,103 1621,230z"/>
    </g>
   </g>
   <g>
    <path class="fil0" d="M4242 1487l0 277c0,0 680,284 2133,270 0,0 1700,60 2133,-277 57,-45 0,0 0,0l0 -262 -4267 -7z"/>
    <g>
     <path class="fil1" d="M8508 1482c0,167 -955,303 -2133,303 -1178,0 -2133,-136 -2133,-303 0,-167 955,-303 2133,-303 1178,0 2133,136 2133,303z"/>
     <path class="fil2" d="M7996 1482c0,127 -726,230 -1621,230 -895,0 -1621,-103 -1621,-230 0,-127 726,-230 1621,-230 895,0 1621,103 1621,230z"/>
    </g>
   </g>
   <g>
    <path class="fil0" d="M4242 1171l0 277c0,0 680,284 2133,269 0,0 1700,60 2133,-277 57,-45 0,0 0,0l0 -262 -4267 -7z"/>
    <g>
     <path class="fil1" d="M8508 1166c0,167 -955,303 -2133,303 -1178,0 -2133,-136 -2133,-303 0,-167 955,-303 2133,-303 1178,0 2133,136 2133,303z"/>
     <path class="fil2" d="M7996 1166c0,127 -726,230 -1621,230 -895,0 -1621,-103 -1621,-230 0,-127 726,-230 1621,-230 895,0 1621,103 1621,230z"/>
    </g>
   </g>
   <g>
    <path class="fil0" d="M4242 878l0 277c0,0 680,284 2133,270 0,0 1700,60 2133,-277 57,-45 0,0 0,0l0 -262 -4267 -7z"/>
    <g>
     <path class="fil1" d="M8508 873c0,167 -955,303 -2133,303 -1178,0 -2133,-136 -2133,-303 0,-167 955,-303 2133,-303 1178,0 2133,136 2133,303z"/>
     <path class="fil2" d="M7996 873c0,127 -726,230 -1621,230 -895,0 -1621,-103 -1621,-230 0,-127 726,-230 1621,-230 895,0 1621,103 1621,230z"/>
    </g>
   </g>
  </g>
  <path class="fil0" d="M5107 6760l0 277c0,0 680,284 2133,269 0,0 1700,60 2133,-277 57,-45 0,0 0,0l0 -262 -4266 -7z"/>
  <path class="fil1" d="M9365 6732c0,167 -955,303 -2133,303 -1178,0 -2133,-136 -2133,-303 0,-167 955,-303 2133,-303 1178,0 2133,136 2133,303z"/>
  <path class="fil2" d="M8853 6732c0,127 -726,230 -1621,230 -895,0 -1621,-103 -1621,-230 0,-127 726,-230 1621,-230 895,0 1621,103 1621,230z"/>
  <g id="_297070296">
   <path class="fil0" d="M5107 6412l0 277c0,0 680,284 2133,270 0,0 1700,60 2133,-277 57,-45 0,0 0,0l0 -262 -4266 -8z"/>
   <g>
    <path class="fil1" d="M9373 6407c0,167 -955,303 -2133,303 -1178,0 -2133,-136 -2133,-303 0,-167 955,-303 2133,-303 1178,0 2133,136 2133,303z"/>
    <path class="fil2" d="M8861 6407c0,127 -726,230 -1621,230 -895,0 -1621,-103 -1621,-230 0,-127 726,-230 1621,-230 895,0 1621,103 1621,230z"/>
   </g>
  </g>
  <path class="fil3" d="M6010 3317c0,746 -44,1705 -289,1705 -245,0 -1183,-541 -1183,-1287 0,-746 199,-1351 444,-1351 245,0 1028,186 1028,933z"/>
  <g id="_297071544">
   <path class="fil0" d="M5107 6119l0 277c0,0 680,284 2133,270 0,0 1700,60 2133,-277 57,-45 0,0 0,0l0 -262 -4266 -7z"/>
   <g>
    <path class="fil1" d="M9373 6114c0,167 -955,303 -2133,303 -1178,0 -2133,-136 -2133,-303 0,-167 955,-303 2133,-303 1178,0 2133,136 2133,303z"/>
    <path class="fil2" d="M8861 6114c0,127 -726,230 -1621,230 -895,0 -1621,-103 -1621,-230 0,-127 726,-230 1621,-230 895,0 1621,103 1621,230z"/>
   </g>
  </g>
  <g id="_297071448">
   <path class="fil0" d="M5107 5810l0 277c0,0 680,284 2133,269 0,0 1700,60 2133,-277 57,-45 0,0 0,0l0 -262 -4266 -7z"/>
   <g>
    <path class="fil1" d="M9373 5805c0,167 -955,303 -2133,303 -1178,0 -2133,-136 -2133,-303 0,-167 955,-303 2133,-303 1178,0 2133,136 2133,303z"/>
    <path class="fil2" d="M8861 5805c0,127 -726,230 -1621,230 -895,0 -1621,-103 -1621,-230 0,-127 726,-230 1621,-230 895,0 1621,103 1621,230z"/>
   </g>
  </g>
  <g id="_297072144">
   <path class="fil0" d="M5107 5517l0 277c0,0 680,284 2133,270 0,0 1700,60 2133,-277 57,-45 0,0 0,0l0 -262 -4266 -8z"/>
   <g>
    <path class="fil1" d="M9373 5512c0,167 -955,303 -2133,303 -1178,0 -2133,-136 -2133,-303 0,-167 955,-303 2133,-303 1178,0 2133,136 2133,303z"/>
    <path class="fil2" d="M8861 5512c0,127 -726,230 -1621,230 -895,0 -1621,-103 -1621,-230 0,-127 726,-230 1621,-230 895,0 1621,103 1621,230z"/>
   </g>
  </g>
  <g id="_297071976">
   <path class="fil0" d="M5107 5201l0 277c0,0 680,284 2133,269 0,0 1700,60 2133,-277 57,-45 0,0 0,0l0 -262 -4266 -7z"/>
   <g>
    <path class="fil1" d="M9373 5196c0,167 -955,303 -2133,303 -1178,0 -2133,-136 -2133,-303 0,-167 955,-303 2133,-303 1178,0 2133,136 2133,303z"/>
    <path class="fil2" d="M8861 5196c0,127 -726,230 -1621,230 -895,0 -1621,-103 -1621,-230 0,-127 726,-230 1621,-230 895,0 1621,103 1621,230z"/>
   </g>
  </g>
  <g id="_297072816">
   <path class="fil0" d="M5107 4908l0 277c0,0 680,284 2133,269 0,0 1700,60 2133,-277 57,-45 0,0 0,0l0 -262 -4266 -7z"/>
   <g>
    <path class="fil1" d="M9373 4903c0,167 -955,303 -2133,303 -1178,0 -2133,-136 -2133,-303 0,-167 955,-303 2133,-303 1178,0 2133,136 2133,303z"/>
    <path class="fil2" d="M8861 4903c0,127 -726,230 -1621,230 -895,0 -1621,-103 -1621,-230 0,-127 726,-230 1621,-230 895,0 1621,103 1621,230z"/>
   </g>
  </g>
  <path class="fil4" d="M5928 5122c0,652 -138,2010 -384,2010 -245,0 -689,-529 -689,-1181 0,-652 199,-1181 444,-1181 245,0 629,-299 629,353z"/>
  <g id="_297073176">
   <g>
    <path class="fil0" d="M1100 7092l0 277c0,0 680,284 2133,269 0,0 1700,60 2133,-277 57,-45 0,0 0,0l0 -262 -4267 -7z"/>
    <g>
     <path class="fil1" d="M5367 7088c0,167 -955,303 -2133,303 -1178,0 -2133,-136 -2133,-303 0,-167 955,-303 2133,-303 1178,0 2133,136 2133,303z"/>
     <path class="fil2" d="M4855 7088c0,127 -726,230 -1621,230 -895,0 -1621,-103 -1621,-230 0,-127 726,-230 1621,-230 895,0 1621,103 1621,230z"/>
    </g>
   </g>
   <g>
    <path class="fil0" d="M1100 6799l0 277c0,0 680,284 2133,270 0,0 1700,60 2133,-277 57,-45 0,0 0,0l0 -262 -4267 -7z"/>
    <g>
     <path class="fil1" d="M5367 6794c0,167 -955,303 -2133,303 -1178,0 -2133,-136 -2133,-303 0,-167 955,-303 2133,-303 1178,0 2133,136 2133,303z"/>
     <path class="fil2" d="M4855 6794c0,127 -726,230 -1621,230 -895,0 -1621,-103 -1621,-230 0,-127 726,-230 1621,-230 895,0 1621,103 1621,230z"/>
    </g>
   </g>
   <g>
    <path class="fil0" d="M1100 6483l0 277c0,0 680,284 2133,269 0,0 1700,60 2133,-277 57,-45 0,0 0,0l0 -262 -4267 -7z"/>
    <g>
     <path class="fil1" d="M5367 6478c0,167 -955,303 -2133,303 -1178,0 -2133,-136 -2133,-303 0,-167 955,-303 2133,-303 1178,0 2133,136 2133,303z"/>
     <path class="fil2" d="M4855 6478c0,127 -726,230 -1621,230 -895,0 -1621,-103 -1621,-230 0,-127 726,-230 1621,-230 895,0 1621,103 1621,230z"/>
    </g>
   </g>
   <g>
    <path class="fil0" d="M1100 6190l0 277c0,0 680,284 2133,270 0,0 1700,60 2133,-277 57,-45 0,0 0,0l0 -262 -4267 -8z"/>
    <g>
     <path class="fil1" d="M5367 6185c0,167 -955,303 -2133,303 -1178,0 -2133,-136 -2133,-303 0,-167 955,-303 2133,-303 1178,0 2133,136 2133,303z"/>
     <path class="fil2" d="M4855 6185c0,127 -726,230 -1621,230 -895,0 -1621,-103 -1621,-230 0,-127 726,-230 1621,-230 895,0 1621,103 1621,230z"/>
    </g>
   </g>
   <g>
    <path class="fil0" d="M1100 5881l0 277c0,0 680,284 2133,269 0,0 1700,60 2133,-277 57,-45 0,0 0,0l0 -262 -4267 -7z"/>
    <g>
     <path class="fil1" d="M5367 5877c0,167 -955,303 -2133,303 -1178,0 -2133,-136 -2133,-303 0,-167 955,-303 2133,-303 1178,0 2133,136 2133,303z"/>
     <path class="fil2" d="M4855 5877c0,127 -726,230 -1621,230 -895,0 -1621,-103 -1621,-230 0,-127 726,-230 1621,-230 895,0 1621,103 1621,230z"/>
    </g>
   </g>
   <g>
    <path class="fil0" d="M1100 5588l0 277c0,0 680,284 2133,270 0,0 1700,60 2133,-277 57,-45 0,0 0,0l0 -262 -4267 -7z"/>
    <g>
     <path class="fil1" d="M5367 5583c0,167 -955,303 -2133,303 -1178,0 -2133,-136 -2133,-303 0,-167 955,-303 2133,-303 1178,0 2133,136 2133,303z"/>
     <path class="fil2" d="M4855 5583c0,127 -726,230 -1621,230 -895,0 -1621,-103 -1621,-230 0,-127 726,-230 1621,-230 895,0 1621,103 1621,230z"/>
    </g>
   </g>
   <g>
    <path class="fil0" d="M1100 5272l0 277c0,0 680,284 2133,270 0,0 1700,60 2133,-277 57,-45 0,0 0,0l0 -262 -4267 -8z"/>
    <g>
     <path class="fil1" d="M5367 5267c0,167 -955,303 -2133,303 -1178,0 -2133,-136 -2133,-303 0,-167 955,-303 2133,-303 1178,0 2133,136 2133,303z"/>
     <path class="fil2" d="M4855 5267c0,127 -726,230 -1621,230 -895,0 -1621,-103 -1621,-230 0,-127 726,-230 1621,-230 895,0 1621,103 1621,230z"/>
    </g>
   </g>
   <g>
    <path class="fil0" d="M1100 4979l0 277c0,0 680,284 2133,270 0,0 1700,60 2133,-277 57,-45 0,0 0,0l0 -262 -4267 -7z"/>
    <g>
     <path class="fil1" d="M5367 4974c0,167 -955,303 -2133,303 -1178,0 -2133,-136 -2133,-303 0,-167 955,-303 2133,-303 1178,0 2133,136 2133,303z"/>
     <path class="fil2" d="M4855 4974c0,127 -726,230 -1621,230 -895,0 -1621,-103 -1621,-230 0,-127 726,-230 1621,-230 895,0 1621,103 1621,230z"/>
    </g>
   </g>
   <g>
    <path class="fil0" d="M1100 4656l0 277c0,0 680,284 2133,269 0,0 1700,60 2133,-277 57,-45 0,0 0,0l0 -262 -4267 -7z"/>
    <g>
     <path class="fil1" d="M5367 4651c0,167 -955,303 -2133,303 -1178,0 -2133,-136 -2133,-303 0,-167 955,-303 2133,-303 1178,0 2133,136 2133,303z"/>
     <path class="fil2" d="M4855 4651c0,127 -726,230 -1621,230 -895,0 -1621,-103 -1621,-230 0,-127 726,-230 1621,-230 895,0 1621,103 1621,230z"/>
    </g>
   </g>
   <g>
    <path class="fil0" d="M1100 4363l0 277c0,0 680,284 2133,270 0,0 1700,60 2133,-277 57,-45 0,0 0,0l0 -262 -4267 -8z"/>
    <g>
     <path class="fil1" d="M5367 4358c0,167 -955,303 -2133,303 -1178,0 -2133,-136 -2133,-303 0,-167 955,-303 2133,-303 1178,0 2133,136 2133,303z"/>
     <path class="fil2" d="M4855 4358c0,127 -726,230 -1621,230 -895,0 -1621,-103 -1621,-230 0,-127 726,-230 1621,-230 895,0 1621,103 1621,230z"/>
    </g>
   </g>
   <g>
    <path class="fil0" d="M1100 4047l0 277c0,0 680,284 2133,269 0,0 1700,60 2133,-277 57,-45 0,0 0,0l0 -262 -4267 -7z"/>
    <g>
     <path class="fil1" d="M5367 4042c0,167 -955,303 -2133,303 -1178,0 -2133,-136 -2133,-303 0,-167 955,-303 2133,-303 1178,0 2133,136 2133,303z"/>
     <path class="fil2" d="M4855 4042c0,127 -726,230 -1621,230 -895,0 -1621,-103 -1621,-230 0,-127 726,-230 1621,-230 895,0 1621,103 1621,230z"/>
    </g>
   </g>
   <g>
    <path class="fil0" d="M1100 3754l0 277c0,0 680,284 2133,270 0,0 1700,60 2133,-277 57,-45 0,0 0,0l0 -262 -4267 -7z"/>
    <g>
     <path class="fil1" d="M5367 3749c0,167 -955,303 -2133,303 -1178,0 -2133,-136 -2133,-303 0,-167 955,-303 2133,-303 1178,0 2133,136 2133,303z"/>
     <path class="fil2" d="M4855 3749c0,127 -726,230 -1621,230 -895,0 -1621,-103 -1621,-230 0,-127 726,-230 1621,-230 895,0 1621,103 1621,230z"/>
    </g>
   </g>
   <g>
    <path class="fil0" d="M1100 3445l0 277c0,0 680,284 2133,269 0,0 1700,60 2133,-277 57,-45 0,0 0,0l0 -262 -4267 -7z"/>
    <g>
     <path class="fil1" d="M5367 3440c0,167 -955,303 -2133,303 -1178,0 -2133,-136 -2133,-303 0,-167 955,-303 2133,-303 1178,0 2133,136 2133,303z"/>
     <path class="fil2" d="M4855 3440c0,127 -726,230 -1621,230 -895,0 -1621,-103 -1621,-230 0,-127 726,-230 1621,-230 895,0 1621,103 1621,230z"/>
    </g>
   </g>
   <g>
    <path class="fil0" d="M1100 3152l0 277c0,0 680,284 2133,270 0,0 1700,60 2133,-277 57,-45 0,0 0,0l0 -262 -4267 -7z"/>
    <g>
     <path class="fil1" d="M5367 3147c0,167 -955,303 -2133,303 -1178,0 -2133,-136 -2133,-303 0,-167 955,-303 2133,-303 1178,0 2133,136 2133,303z"/>
     <path class="fil2" d="M4855 3147c0,127 -726,230 -1621,230 -895,0 -1621,-103 -1621,-230 0,-127 726,-230 1621,-230 895,0 1621,103 1621,230z"/>
    </g>
   </g>
   <g>
    <path class="fil0" d="M1100 2836l0 277c0,0 680,284 2133,269 0,0 1700,60 2133,-277 57,-45 0,0 0,0l0 -262 -4267 -7z"/>
    <g>
     <path class="fil1" d="M5367 2831c0,167 -955,303 -2133,303 -1178,0 -2133,-136 -2133,-303 0,-167 955,-303 2133,-303 1178,0 2133,136 2133,303z"/>
     <path class="fil2" d="M4855 2831c0,127 -726,230 -1621,230 -895,0 -1621,-103 -1621,-230 0,-127 726,-230 1621,-230 895,0 1621,103 1621,230z"/>
    </g>
   </g>
   <g>
    <path class="fil0" d="M1100 2542l0 277c0,0 680,284 2133,270 0,0 1700,60 2133,-277 57,-45 0,0 0,0l0 -262 -4267 -7z"/>
    <g>
     <path class="fil1" d="M5367 2538c0,167 -955,303 -2133,303 -1178,0 -2133,-136 -2133,-303 0,-167 955,-303 2133,-303 1178,0 2133,136 2133,303z"/>
     <path class="fil2" d="M4855 2538c0,127 -726,230 -1621,230 -895,0 -1621,-103 -1621,-230 0,-127 726,-230 1621,-230 895,0 1621,103 1621,230z"/>
    </g>
   </g>
  </g>
 </g>
</svg>
